<svg id="svg" xmlns="http://www.w3.org/2000/svg" xmlns:xlink="http://www.w3.org/1999/xlink" width="400" height="452.5" viewBox="0, 0, 400,452.5"><g id="svgg"><path id="path0" d="M44.063 12.404 C 32.520 16.369,24.126 24.954,20.451 36.556 L 19.063 40.938 19.063 226.250 L 19.063 411.563 20.793 416.455 C 26.429 432.387,38.705 440.938,55.938 440.937 C 66.560 440.936,67.790 440.416,89.814 426.629 C 105.950 416.528,115.571 410.519,146.563 391.189 C 153.781 386.686,164.891 379.748,171.250 375.771 C 197.089 359.612,199.616 358.125,201.241 358.125 C 202.859 358.125,208.160 361.248,234.219 377.551 C 240.493 381.476,255.961 391.141,268.594 399.028 C 281.227 406.915,293.391 414.543,295.625 415.978 C 331.840 439.243,335.294 440.936,346.563 440.937 C 364.302 440.938,377.027 431.585,382.273 414.688 C 383.398 411.065,383.438 404.642,383.438 225.938 L 383.438 40.938 382.049 36.556 C 378.314 24.766,369.685 16.083,357.871 12.226 L 352.965 10.625 201.014 10.655 L 49.063 10.686 44.063 12.404 M350.672 43.488 L 352.188 45.101 352.365 224.269 C 352.463 322.812,352.389 404.302,352.201 405.359 C 351.202 410.980,347.123 411.417,339.811 406.684 C 336.993 404.861,330.469 400.758,325.313 397.567 C 320.156 394.377,311.136 388.767,305.268 385.102 C 299.399 381.436,284.493 372.128,272.143 364.416 C 259.792 356.704,248.141 349.400,246.250 348.185 C 244.359 346.970,242.330 345.686,241.739 345.332 C 241.149 344.977,235.324 341.389,228.794 337.358 C 209.700 325.571,198.606 323.769,185.496 330.325 C 183.021 331.563,70.589 401.517,60.832 407.890 C 55.778 411.190,51.361 410.443,50.313 406.110 C 50.124 405.327,50.046 323.780,50.141 224.894 L 50.313 45.101 51.828 43.488 L 53.343 41.875 201.250 41.875 L 349.157 41.875 350.672 43.488 M196.563 89.913 C 193.985 91.505,192.946 92.873,191.273 96.875 C 190.482 98.766,189.202 101.719,188.429 103.438 C 187.655 105.156,183.432 115.000,179.045 125.313 C 167.432 152.606,172.084 149.601,140.826 150.000 C 113.732 150.346,114.929 150.158,111.623 154.586 C 109.987 156.777,109.884 162.214,111.434 164.579 C 112.027 165.484,121.444 173.375,132.362 182.116 C 156.404 201.364,156.020 200.830,152.881 210.642 C 152.060 213.211,150.773 217.422,150.022 220.000 C 149.271 222.578,148.405 225.391,148.097 226.250 C 147.789 227.109,146.943 229.922,146.218 232.500 C 144.369 239.067,143.681 241.386,139.998 253.438 C 135.890 266.886,135.877 269.605,139.908 273.182 C 145.899 278.499,147.017 278.006,172.813 258.676 C 200.091 238.233,197.405 240.000,201.212 240.000 C 205.155 240.000,203.163 238.698,229.371 258.397 C 255.487 278.026,256.584 278.514,262.592 273.182 C 266.623 269.605,266.610 266.886,262.502 253.438 C 258.819 241.386,258.131 239.067,256.282 232.500 C 255.557 229.922,254.711 227.109,254.403 226.250 C 254.095 225.391,253.229 222.578,252.478 220.000 C 251.727 217.422,250.440 213.211,249.619 210.642 C 246.515 200.937,246.224 201.342,269.997 182.268 C 280.762 173.630,290.129 165.809,290.812 164.888 C 292.526 162.575,292.537 156.810,290.832 154.526 C 287.577 150.167,288.727 150.345,261.674 150.000 C 230.306 149.600,235.113 152.706,223.468 125.313 C 219.085 115.000,214.861 105.156,214.081 103.438 C 213.302 101.719,212.019 98.766,211.229 96.875 C 208.151 89.502,201.974 86.570,196.563 89.913 " stroke="none" fill-rule="evenodd"></path></g></svg>