<svg id="svg" xmlns="http://www.w3.org/2000/svg" xmlns:xlink="http://www.w3.org/1999/xlink" width="400" height="447.2681067344346" viewBox="0, 0, 400,447.2681067344346">
  <g id="svgg">
    <path id="path0" d="M159.872 17.749 C 159.726 17.985,159.859 20.092,160.168 22.431 C 160.476 24.770,160.741 31.830,160.756 38.119 C 160.820 64.701,154.780 82.518,130.085 128.590 C 128.661 131.245,125.355 137.535,122.738 142.567 C 120.121 147.598,116.355 154.803,114.369 158.577 C 106.554 173.431,87.849 211.615,83.993 220.584 C 56.625 284.254,73.590 351.338,129.352 399.944 C 139.433 408.731,139.096 408.756,136.504 399.418 C 118.982 336.282,126.210 281.294,157.427 240.240 C 164.383 231.092,181.437 215.002,186.055 213.230 C 186.701 212.982,186.775 214.597,186.610 225.311 C 186.037 262.430,197.389 304.301,216.834 336.793 C 217.359 337.671,218.519 339.619,219.411 341.122 C 220.303 342.626,221.731 344.821,222.586 346.000 L 224.139 348.144 226.809 347.099 C 234.724 344.000,247.023 336.916,260.635 327.617 C 264.353 325.077,268.084 322.569,268.926 322.044 L 270.458 321.089 270.140 325.602 C 269.695 331.920,268.472 341.772,267.278 348.666 C 266.722 351.881,266.055 355.769,265.797 357.306 C 265.539 358.844,264.857 362.274,264.281 364.930 C 263.705 367.586,263.028 370.788,262.777 372.046 C 262.526 373.304,261.482 377.878,260.455 382.211 C 259.429 386.544,258.415 390.889,258.203 391.868 C 257.990 392.846,257.084 396.585,256.190 400.175 C 255.297 403.766,254.670 406.809,254.797 406.936 C 256.146 408.285,280.556 382.401,290.818 368.742 C 338.012 305.925,344.043 243.778,309.714 174.012 C 305.296 165.033,296.401 149.347,295.363 148.706 C 295.115 148.553,294.795 154.337,294.642 161.763 C 293.739 205.313,279.359 246.065,253.416 278.600 C 249.691 283.272,249.538 283.259,251.593 278.450 C 261.723 254.745,265.211 208.132,260.430 160.356 C 255.281 108.909,227.735 63.311,182.385 31.165 C 174.685 25.706,160.265 17.113,159.872 17.749 " fill-rule="evenodd"></path>
  </g>
</svg>