<svg id="svg" xmlns="http://www.w3.org/2000/svg" xmlns:xlink="http://www.w3.org/1999/xlink" width="400" height="442.12328767123284" viewBox="0, 0, 400,442.12328767123284"><g id="svgg"><path id="path0" d="M92.339 35.702 C 92.226 36.126,92.131 37.294,92.128 38.298 C 92.125 39.302,91.974 41.536,91.791 43.264 C 91.609 44.991,91.222 49.332,90.931 52.911 C 90.641 56.490,90.247 61.267,90.056 63.527 C 89.629 68.573,89.170 74.098,88.691 79.966 C 88.490 82.414,88.185 85.959,88.011 87.842 C 87.837 89.726,87.511 93.656,87.286 96.575 C 86.782 103.112,87.315 102.557,81.080 103.042 C 78.207 103.266,74.315 103.592,72.432 103.767 C 70.548 103.942,66.926 104.249,64.384 104.451 C 58.096 104.949,52.651 105.403,47.945 105.822 C 40.582 106.478,27.239 107.581,23.549 107.838 C 21.527 107.980,19.768 108.200,19.639 108.329 C 19.142 108.826,20.006 109.037,23.549 109.285 C 27.239 109.543,40.582 110.646,47.945 111.301 C 52.651 111.720,58.096 112.174,64.384 112.672 C 66.926 112.874,70.548 113.182,72.432 113.356 C 74.315 113.531,78.207 113.857,81.080 114.081 C 87.311 114.566,86.793 114.041,87.289 120.377 C 87.510 123.202,87.833 127.132,88.006 129.110 C 88.180 131.087,88.487 134.709,88.688 137.158 C 88.890 139.606,89.203 143.382,89.383 145.548 C 89.564 147.714,89.872 151.413,90.068 153.767 C 90.263 156.122,90.650 160.745,90.927 164.041 C 91.385 169.495,91.971 176.641,92.269 180.411 C 92.478 183.060,93.182 182.837,93.377 180.059 C 93.446 179.066,93.653 176.481,93.836 174.315 C 94.019 172.149,94.403 167.526,94.690 164.041 C 94.977 160.557,95.357 156.010,95.534 153.938 C 95.712 151.866,96.026 148.091,96.231 145.548 C 96.436 143.005,96.747 139.307,96.922 137.329 C 97.097 135.351,97.413 131.575,97.625 128.938 C 98.645 116.216,98.792 114.975,99.315 114.705 C 99.598 114.559,102.217 114.265,105.137 114.050 C 108.057 113.836,111.909 113.524,113.699 113.356 C 115.488 113.189,119.033 112.884,121.575 112.679 C 129.378 112.050,139.209 111.237,148.630 110.441 C 151.926 110.163,156.704 109.770,159.247 109.568 C 165.639 109.060,166.781 108.908,166.781 108.562 C 166.781 108.216,165.639 108.063,159.247 107.555 C 156.704 107.354,151.926 106.961,148.630 106.682 C 139.209 105.887,129.378 105.074,121.575 104.444 C 119.033 104.239,115.488 103.934,113.699 103.767 C 111.909 103.600,108.057 103.287,105.137 103.073 C 102.217 102.859,99.598 102.564,99.315 102.418 C 98.792 102.148,98.645 100.908,97.625 88.185 C 97.413 85.548,97.097 81.772,96.922 79.795 C 96.747 77.817,96.436 74.118,96.231 71.575 C 96.026 69.033,95.712 65.257,95.533 63.185 C 95.355 61.113,94.972 56.490,94.683 52.911 C 94.394 49.332,94.008 44.991,93.825 43.264 C 93.642 41.536,93.491 39.302,93.488 38.298 C 93.483 36.280,93.211 34.932,92.808 34.932 C 92.664 34.932,92.453 35.278,92.339 35.702 M313.887 59.675 C 313.765 60.852,313.524 62.894,313.351 64.212 C 313.178 65.531,312.880 67.881,312.689 69.436 C 312.498 70.990,312.179 73.533,311.981 75.087 C 311.212 81.113,309.927 91.418,309.558 94.521 C 309.346 96.310,308.995 98.850,308.779 100.166 L 308.387 102.558 305.135 102.984 C 300.586 103.579,296.515 104.096,293.408 104.473 C 289.655 104.928,285.890 105.394,282.705 105.800 C 281.199 105.992,277.962 106.391,275.514 106.688 C 273.065 106.984,270.227 107.373,269.207 107.552 C 268.186 107.731,266.722 107.879,265.953 107.882 C 264.211 107.888,263.267 108.391,264.041 108.899 C 264.324 109.084,265.184 109.238,265.953 109.241 C 266.722 109.244,268.186 109.393,269.207 109.571 C 270.227 109.750,273.065 110.139,275.514 110.435 C 277.962 110.732,281.199 111.132,282.705 111.323 C 285.890 111.729,289.655 112.196,293.408 112.650 C 296.515 113.027,300.586 113.544,305.135 114.140 L 308.387 114.565 308.779 116.957 C 308.995 118.273,309.346 120.813,309.558 122.603 C 309.927 125.705,311.212 136.011,311.981 142.037 C 312.179 143.590,312.498 146.133,312.689 147.687 C 312.880 149.242,313.178 151.592,313.351 152.911 C 313.524 154.229,313.765 156.271,313.887 157.449 C 314.187 160.349,314.923 160.349,315.223 157.449 C 315.344 156.271,315.586 154.229,315.759 152.911 C 315.932 151.592,316.230 149.242,316.421 147.687 C 316.612 146.133,316.930 143.590,317.128 142.037 C 317.898 136.011,319.183 125.705,319.551 122.603 C 319.764 120.813,320.114 118.275,320.329 116.963 L 320.721 114.576 324.145 114.149 C 326.028 113.914,328.878 113.554,330.479 113.347 C 333.328 112.980,335.382 112.727,341.610 111.979 C 343.305 111.776,345.771 111.465,347.089 111.289 C 348.408 111.113,351.490 110.728,353.938 110.433 C 356.387 110.138,359.225 109.750,360.245 109.571 C 361.266 109.393,362.730 109.244,363.499 109.241 C 364.268 109.238,365.128 109.084,365.411 108.899 C 366.185 108.391,365.241 107.888,363.499 107.882 C 362.730 107.879,361.266 107.731,360.245 107.552 C 359.225 107.373,356.387 106.986,353.938 106.690 C 351.490 106.395,348.408 106.010,347.089 105.834 C 345.771 105.658,343.305 105.348,341.610 105.144 C 335.382 104.396,333.328 104.143,330.479 103.776 C 328.878 103.570,326.028 103.209,324.145 102.974 L 320.721 102.547 320.329 100.161 C 320.114 98.848,319.764 96.310,319.551 94.521 C 319.183 91.418,317.898 81.113,317.128 75.087 C 316.930 73.533,316.612 70.990,316.421 69.436 C 316.230 67.881,315.932 65.531,315.759 64.212 C 315.586 62.894,315.344 60.852,315.223 59.675 C 315.076 58.257,314.851 57.534,314.555 57.534 C 314.259 57.534,314.034 58.257,313.887 59.675 M200.216 60.017 C 200.102 60.441,200.007 61.609,200.005 62.613 C 200.002 63.617,199.852 65.851,199.672 67.579 C 199.491 69.306,199.104 73.878,198.812 77.740 C 198.519 81.601,198.134 86.455,197.956 88.527 C 197.777 90.599,197.467 94.452,197.265 97.089 C 197.064 99.726,196.753 103.656,196.574 105.822 C 196.395 107.988,196.159 110.916,196.050 112.329 C 195.624 117.840,195.208 123.040,194.692 129.281 C 194.396 132.860,194.002 137.714,193.815 140.068 C 193.629 142.423,193.326 146.237,193.142 148.545 C 192.959 150.852,192.661 154.628,192.481 156.935 C 191.615 168.042,191.420 170.476,190.925 176.370 C 190.632 179.854,190.236 184.709,190.046 187.158 C 189.855 189.606,189.561 193.382,189.392 195.548 C 189.223 197.714,188.978 200.581,188.847 201.918 L 188.610 204.350 184.288 204.739 C 181.911 204.953,178.039 205.286,175.685 205.479 C 173.330 205.671,169.632 205.982,167.466 206.170 C 163.819 206.485,161.184 206.694,150.171 207.544 C 147.911 207.718,144.135 208.019,141.781 208.212 C 136.422 208.652,130.059 209.150,124.401 209.573 C 121.999 209.752,116.336 210.208,111.815 210.585 C 107.295 210.963,101.438 211.437,98.801 211.640 C 96.164 211.843,92.312 212.154,90.240 212.333 C 88.168 212.511,84.315 212.820,81.678 213.021 C 79.041 213.221,75.188 213.530,73.116 213.707 C 71.045 213.884,66.190 214.268,62.329 214.561 C 58.467 214.853,53.895 215.241,52.168 215.423 C 50.440 215.605,48.264 215.753,47.330 215.753 C 45.273 215.753,43.493 216.081,43.493 216.460 C 43.493 216.795,44.794 216.956,51.541 217.458 C 54.366 217.669,59.375 218.061,62.671 218.329 C 65.967 218.598,70.745 218.980,73.288 219.178 C 75.830 219.376,79.683 219.684,81.849 219.861 C 84.015 220.038,87.868 220.348,90.411 220.550 C 101.281 221.412,103.585 221.596,109.760 222.092 C 113.339 222.380,118.116 222.766,120.377 222.950 C 122.637 223.135,126.490 223.443,128.938 223.636 C 138.433 224.383,147.058 225.074,154.538 225.686 C 156.845 225.875,161.661 226.259,165.240 226.539 C 174.267 227.246,179.608 227.692,184.453 228.146 L 188.598 228.534 188.987 232.846 C 189.411 237.564,189.803 242.287,190.592 252.226 C 190.876 255.805,191.263 260.659,191.453 263.014 C 191.642 265.368,191.942 269.144,192.118 271.404 C 192.665 278.399,193.159 284.591,193.498 288.699 C 193.853 292.993,194.230 297.697,195.025 307.705 C 195.309 311.284,195.691 316.062,195.874 318.322 C 196.303 323.622,196.858 330.578,197.273 335.873 C 197.455 338.181,197.758 341.956,197.948 344.264 C 198.436 350.203,199.246 360.325,199.666 365.753 C 199.863 368.296,200.078 371.039,200.143 371.849 C 200.342 374.316,201.028 374.316,201.226 371.849 C 201.292 371.039,201.506 368.296,201.703 365.753 C 201.901 363.211,202.291 358.279,202.572 354.795 C 202.852 351.310,203.241 346.455,203.435 344.007 C 203.630 341.558,203.933 337.783,204.109 335.616 C 204.286 333.450,204.595 329.598,204.796 327.055 C 204.998 324.512,205.313 320.582,205.496 318.322 C 205.679 316.062,206.061 311.284,206.345 307.705 C 207.174 297.261,207.525 292.894,207.874 288.699 C 208.054 286.533,208.363 282.603,208.562 279.966 C 208.760 277.329,209.070 273.399,209.249 271.233 C 209.598 267.037,209.949 262.670,210.778 252.226 C 211.568 242.277,211.959 237.562,212.384 232.837 L 212.773 228.517 215.376 228.281 C 216.808 228.152,219.752 227.907,221.918 227.738 C 228.022 227.259,235.850 226.622,251.712 225.312 C 254.067 225.118,257.842 224.820,260.103 224.650 C 270.330 223.881,279.036 223.188,288.014 222.430 C 291.498 222.135,296.276 221.749,298.630 221.571 C 300.985 221.393,304.837 221.090,307.192 220.897 C 311.303 220.560,315.641 220.218,324.486 219.532 C 329.949 219.109,335.768 218.634,343.664 217.968 C 347.243 217.666,351.907 217.304,354.028 217.164 C 361.178 216.692,360.043 216.128,350.514 215.418 C 347.688 215.208,342.680 214.816,339.384 214.547 C 336.087 214.279,331.310 213.895,328.767 213.694 C 326.224 213.492,322.449 213.186,320.377 213.014 C 318.305 212.841,314.452 212.535,311.815 212.334 C 309.178 212.133,305.248 211.817,303.082 211.632 C 300.916 211.447,294.135 210.911,288.014 210.441 C 281.892 209.971,275.467 209.433,273.736 209.245 C 272.004 209.058,269.787 208.904,268.809 208.904 C 267.830 208.904,265.702 208.754,264.080 208.571 C 262.458 208.387,258.896 208.073,256.164 207.872 C 253.433 207.671,249.426 207.357,247.260 207.175 C 243.581 206.866,236.648 206.314,225.685 205.460 C 223.142 205.261,219.741 204.954,218.127 204.776 C 216.514 204.598,214.651 204.452,213.988 204.452 L 212.783 204.452 212.389 200.086 C 211.913 194.809,211.459 189.315,210.783 180.651 C 210.504 177.072,210.117 172.217,209.924 169.863 C 209.731 167.509,209.428 163.733,209.252 161.473 C 208.705 154.477,208.211 148.286,207.872 144.178 C 207.539 140.143,207.250 136.558,206.343 125.171 C 206.058 121.592,205.665 116.661,205.470 114.212 C 205.274 111.764,204.970 107.988,204.793 105.822 C 204.615 103.656,204.306 99.726,204.104 97.089 C 203.903 94.452,203.593 90.599,203.415 88.527 C 203.237 86.455,202.853 81.678,202.562 77.911 C 202.270 74.144,201.882 69.553,201.701 67.709 C 201.519 65.865,201.368 63.554,201.365 62.572 C 201.360 60.591,201.085 59.247,200.685 59.247 C 200.541 59.247,200.329 59.593,200.216 60.017 M308.093 251.455 C 307.979 251.879,307.884 253.047,307.881 254.051 C 307.879 255.055,307.727 257.290,307.545 259.017 C 307.362 260.744,306.975 265.086,306.685 268.664 C 306.394 272.243,306.000 277.021,305.809 279.281 C 305.383 284.327,304.924 289.852,304.444 295.719 C 304.244 298.168,303.938 301.712,303.764 303.596 C 303.591 305.479,303.264 309.409,303.039 312.329 C 302.536 318.865,303.068 318.310,296.833 318.796 C 293.960 319.020,290.068 319.346,288.185 319.520 C 286.301 319.695,282.680 320.003,280.137 320.204 C 273.850 320.702,268.404 321.156,263.699 321.575 C 256.336 322.231,242.992 323.334,239.303 323.592 C 233.669 323.986,233.669 324.644,239.303 325.038 C 242.992 325.296,256.336 326.399,263.699 327.055 C 268.404 327.474,273.850 327.928,280.137 328.426 C 282.680 328.627,286.301 328.935,288.185 329.110 C 290.068 329.285,293.960 329.611,296.833 329.834 C 303.064 330.320,302.546 329.795,303.042 336.130 C 303.263 338.955,303.586 342.885,303.760 344.863 C 303.933 346.841,304.240 350.462,304.442 352.911 C 304.643 355.360,304.956 359.135,305.137 361.301 C 305.318 363.467,305.626 367.166,305.821 369.521 C 306.016 371.875,306.403 376.498,306.680 379.795 C 307.139 385.249,307.725 392.395,308.023 396.164 C 308.232 398.814,308.935 398.590,309.130 395.812 C 309.200 394.819,309.406 392.235,309.589 390.068 C 309.772 387.902,310.156 383.279,310.443 379.795 C 310.730 376.310,311.110 371.764,311.288 369.692 C 311.466 367.620,311.779 363.844,311.984 361.301 C 312.190 358.759,312.501 355.060,312.676 353.082 C 312.851 351.104,313.167 347.329,313.378 344.692 C 314.398 331.969,314.546 330.729,315.068 330.459 C 315.351 330.313,317.971 330.018,320.890 329.804 C 323.810 329.589,327.663 329.277,329.452 329.110 C 331.241 328.942,334.786 328.638,337.329 328.433 C 345.132 327.803,354.963 326.990,364.384 326.194 C 367.680 325.916,372.457 325.523,375.000 325.321 C 381.393 324.814,382.534 324.661,382.534 324.315 C 382.534 323.969,381.393 323.817,375.000 323.309 C 372.457 323.107,367.680 322.714,364.384 322.436 C 354.963 321.640,345.132 320.827,337.329 320.198 C 334.786 319.992,331.241 319.688,329.452 319.520 C 327.663 319.353,323.810 319.041,320.890 318.826 C 317.971 318.612,315.351 318.317,315.068 318.171 C 314.546 317.901,314.398 316.661,313.378 303.938 C 313.167 301.301,312.851 297.526,312.676 295.548 C 312.501 293.570,312.190 289.872,311.984 287.329 C 311.779 284.786,311.465 281.010,311.287 278.938 C 311.108 276.866,310.726 272.243,310.436 268.664 C 310.147 265.086,309.761 260.744,309.578 259.017 C 309.396 257.290,309.244 255.055,309.242 254.051 C 309.237 252.033,308.964 250.685,308.562 250.685 C 308.417 250.685,308.206 251.032,308.093 251.455 M81.146 260.702 C 81.136 260.749,80.991 261.943,80.824 263.356 C 80.005 270.294,79.764 272.244,78.940 278.596 C 78.452 282.363,77.895 286.755,77.704 288.356 C 77.512 289.957,77.220 292.346,77.055 293.664 C 76.889 294.983,76.596 297.372,76.403 298.973 C 75.605 305.578,75.643 305.416,74.870 305.603 C 74.470 305.700,71.524 306.097,68.322 306.486 C 65.120 306.875,61.267 307.357,59.760 307.556 C 56.394 308.002,53.182 308.410,49.144 308.904 C 47.449 309.112,44.983 309.420,43.664 309.588 C 42.346 309.757,39.033 310.158,36.301 310.480 C 29.815 311.245,28.976 311.834,33.634 312.352 C 38.524 312.896,54.868 314.906,60.959 315.714 C 62.372 315.901,64.914 316.226,66.610 316.436 C 68.305 316.646,71.000 317.003,72.599 317.229 L 75.506 317.640 75.762 319.351 C 76.044 321.240,76.593 325.499,77.065 329.452 C 77.233 330.865,77.523 333.253,77.710 334.760 C 78.880 344.205,79.496 349.135,79.809 351.541 C 80.311 355.398,80.784 359.137,81.015 361.065 C 81.364 363.977,81.957 362.690,82.575 357.683 C 83.454 350.566,83.898 347.015,84.243 344.349 C 84.414 343.031,84.719 340.604,84.921 338.956 C 86.197 328.524,87.002 322.236,87.371 319.823 L 87.718 317.557 89.664 317.319 C 92.799 316.935,96.721 316.462,99.572 316.123 C 101.032 315.949,103.459 315.648,104.966 315.454 C 106.473 315.260,110.248 314.785,113.356 314.399 C 121.133 313.432,124.134 313.036,126.581 312.655 C 127.732 312.476,129.274 312.327,130.005 312.324 C 131.772 312.318,132.933 311.985,132.781 311.528 C 132.672 311.202,128.420 310.572,117.295 309.233 C 115.599 309.029,113.134 308.727,111.815 308.561 C 110.497 308.396,108.108 308.105,106.507 307.914 C 98.769 306.991,92.077 306.133,90.014 305.798 C 87.321 305.361,87.630 306.071,86.668 298.116 C 86.281 294.914,85.817 291.216,85.637 289.897 C 85.456 288.579,85.144 286.152,84.942 284.504 C 84.065 277.327,83.885 275.882,83.563 273.373 C 83.376 271.914,82.991 268.953,82.707 266.795 C 82.424 264.636,82.192 262.363,82.192 261.743 C 82.192 260.863,81.302 259.977,81.146 260.702 " stroke="none" fill-rule="evenodd"></path></g></svg>